<svg xmlns="http://www.w3.org/2000/svg" width="960" height="640" viewBox="0 0 960 640" role="img" aria-label="화사한 꽃바구니 기본 이미지">
  <defs>
    <linearGradient id="bg" x1="0" x2="1" y1="0" y2="1">
      <stop offset="0" stop-color="#fffdf2"/>
      <stop offset="1" stop-color="#ffd8e4"/>
    </linearGradient>
    <radialGradient id="flowerA" cx=".35" cy=".3" r=".75">
      <stop offset="0" stop-color="#fff"/>
      <stop offset=".55" stop-color="#ffb14f"/>
      <stop offset="1" stop-color="#ce6b23"/>
    </radialGradient>
    <radialGradient id="flowerB" cx=".4" cy=".25" r=".75">
      <stop offset="0" stop-color="#fff7fb"/>
      <stop offset=".6" stop-color="#f070a4"/>
      <stop offset="1" stop-color="#9a315f"/>
    </radialGradient>
  </defs>
  <rect width="960" height="640" fill="url(#bg)"/>
  <ellipse cx="480" cy="548" rx="300" ry="42" fill="#7d5260" opacity=".15"/>
  <g transform="translate(480 338)">
    <path d="M-210 45c15 160 55 210 210 210s195-50 210-210Z" fill="#b9824b"/>
    <path d="M-190 70h380c-20 115-63 150-190 150S-170 185-190 70Z" fill="#d7a76b"/>
    <path d="M-185 58c35-130 335-130 370 0" fill="none" stroke="#9a6638" stroke-width="24" stroke-linecap="round"/>
    <g stroke="#8baa73" stroke-width="9" stroke-linecap="round">
      <path d="M-120 70-160-80"/>
      <path d="M-70 72-55-110"/>
      <path d="M0 76 5-125"/>
      <path d="M70 72 60-105"/>
      <path d="M124 70 165-80"/>
    </g>
    <circle cx="-160" cy="-76" r="68" fill="url(#flowerB)"/>
    <circle cx="-65" cy="-118" r="72" fill="url(#flowerA)"/>
    <circle cx="35" cy="-130" r="78" fill="#f4d35e"/>
    <circle cx="130" cy="-78" r="70" fill="url(#flowerB)"/>
    <circle cx="-8" cy="-45" r="86" fill="#f7a9c4"/>
    <circle cx="-8" cy="-45" r="26" fill="#7d5260" opacity=".25"/>
    <path d="M-210-10c66-40 110-40 145 0-55 2-100 8-145 0Z" fill="#70955f"/>
    <path d="M210-8c-66-42-112-43-148-2 58 4 102 10 148 2Z" fill="#668c56"/>
  </g>
</svg>
