<svg xmlns="http://www.w3.org/2000/svg" width="960" height="640" viewBox="0 0 960 640" role="img" aria-label="핑크톤 꽃다발 기본 이미지">
  <defs>
    <linearGradient id="bg" x1="0" x2="1" y1="0" y2="1">
      <stop offset="0" stop-color="#fff8f8"/>
      <stop offset="1" stop-color="#eadcff"/>
    </linearGradient>
    <radialGradient id="pink" cx=".4" cy=".35" r=".7">
      <stop offset="0" stop-color="#fff3f7"/>
      <stop offset=".55" stop-color="#e85f89"/>
      <stop offset="1" stop-color="#9f3358"/>
    </radialGradient>
    <radialGradient id="cream" cx=".45" cy=".35" r=".75">
      <stop offset="0" stop-color="#fffef6"/>
      <stop offset=".6" stop-color="#f6cf9a"/>
      <stop offset="1" stop-color="#d99056"/>
    </radialGradient>
  </defs>
  <rect width="960" height="640" fill="url(#bg)"/>
  <ellipse cx="480" cy="560" rx="270" ry="38" fill="#6750a4" opacity=".12"/>
  <g transform="translate(480 330)">
    <path d="M-95 115 0 245 95 115Z" fill="#d8c3a5"/>
    <path d="M-78 124 0 232 78 124Z" fill="#f4e5ce"/>
    <g stroke="#5c7c52" stroke-width="10" stroke-linecap="round">
      <path d="M-50 100 0-40"/>
      <path d="M0 120 10-70"/>
      <path d="M48 105 28-50"/>
      <path d="M-10 120-110-20"/>
      <path d="M20 125 120-10"/>
    </g>
    <g>
      <circle cx="-105" cy="-25" r="74" fill="url(#pink)"/>
      <circle cx="-35" cy="-95" r="78" fill="url(#cream)"/>
      <circle cx="45" cy="-85" r="82" fill="url(#pink)"/>
      <circle cx="118" cy="-12" r="70" fill="url(#cream)"/>
      <circle cx="-5" cy="-12" r="88" fill="#f7aac2"/>
      <circle cx="-5" cy="-12" r="32" fill="#8c2e4c" opacity=".28"/>
      <path d="M-165 70c45-58 86-70 120-36-52 6-88 18-120 36Z" fill="#7ea46f"/>
      <path d="M160 72c-42-60-84-75-120-40 52 8 88 20 120 40Z" fill="#6f965f"/>
    </g>
  </g>
</svg>
