<svg xmlns="http://www.w3.org/2000/svg" width="960" height="640" viewBox="0 0 960 640" role="img" aria-label="맞춤 꽃 주문 기본 이미지">
  <defs>
    <linearGradient id="bg" x1="0" x2="1" y1="0" y2="1">
      <stop offset="0" stop-color="#fffbfe"/>
      <stop offset="1" stop-color="#eaddff"/>
    </linearGradient>
  </defs>
  <rect width="960" height="640" fill="url(#bg)"/>
  <g transform="translate(480 320)">
    <rect x="-250" y="-150" width="500" height="330" rx="36" fill="#fff" stroke="#cac4d0" stroke-width="8"/>
    <path d="M-185-75h210M-185-20h270M-185 35h185" stroke="#6750a4" stroke-width="18" stroke-linecap="round" opacity=".35"/>
    <circle cx="150" cy="-55" r="62" fill="#ffd8e4"/>
    <circle cx="150" cy="-55" r="26" fill="#7d5260" opacity=".24"/>
    <path d="M105 68c48-95 112-110 164-52-52 50-108 60-164 52Z" fill="#4f8f62"/>
    <path d="M78 90c18-82 70-125 145-112-28 78-76 116-145 112Z" fill="#6da879"/>
    <path d="M-40 140 120-30" stroke="#625b71" stroke-width="12" stroke-linecap="round"/>
    <path d="M-70 158c65-10 106-2 155 22" stroke="#7d5260" stroke-width="12" stroke-linecap="round"/>
  </g>
</svg>
